<?xml version="1.0" encoding="utf-8"?>
<!-- Generator: Adobe Illustrator 25.4.1, SVG Export Plug-In . SVG Version: 6.00 Build 0)  -->
<svg version="1.1" xmlns="http://www.w3.org/2000/svg" xmlns:xlink="http://www.w3.org/1999/xlink" x="0px" y="0px"
	 viewBox="0 0 128.88 124.64" style="enable-background:new 0 0 128.88 124.64;" xml:space="preserve">
<style type="text/css">
	.st0{fill:#2A2A2A;}
	.st1{fill-rule:evenodd;clip-rule:evenodd;fill:#2A2A2A;}
</style>
<g id="BACKGROUND">
</g>
<g id="OBJECTS">
	<path class="st1" d="M91.91,61.94c7.03-2.93,15.19,5.84,22.05,2.98c5.26-2.19,7.59-8.54,5.45-13.91
		c-2.15-5.38-8.83-7.15-10.95-6.27c2.12-0.88,5.68-6.93,3.54-12.31c-2.15-5.37-8.16-8.24-13.42-6.05
		c-6.87,2.86-6.68,14.96-13.72,17.89l-47.9,19.96c-7.04,2.93-15.19-5.84-22.05-2.98c-5.26,2.19-7.59,8.54-5.45,13.91
		c2.15,5.38,8.83,7.15,10.95,6.27c-2.12,0.88-5.68,6.93-3.53,12.31c2.15,5.37,8.15,8.24,13.42,6.05
		c6.87-2.86,6.69-14.96,13.72-17.89L91.91,61.94z"/>
</g>
</svg>
