<?xml version="1.0" encoding="utf-8"?>
<!-- Generator: Adobe Illustrator 25.4.1, SVG Export Plug-In . SVG Version: 6.00 Build 0)  -->
<svg version="1.1" xmlns="http://www.w3.org/2000/svg" xmlns:xlink="http://www.w3.org/1999/xlink" x="0px" y="0px"
	 viewBox="0 0 128.88 124.64" style="enable-background:new 0 0 128.88 124.64;" xml:space="preserve">
<style type="text/css">
	.st0{fill:#2A2A2A;}
	.st1{fill-rule:evenodd;clip-rule:evenodd;fill:#2A2A2A;}
</style>
<g id="BACKGROUND">
</g>
<g id="OBJECTS">
	<g>
		<g>
			<path class="st0" d="M61.88,119.42c-2.71,2.06-6.47,1.83-8.84-0.53c-2.78-2.77-7.41-7.66-15.07-16.29
				c-18-20.25-16.15-28.39-16.17-29.28c-0.33-13.42,11.16-23.7,22.97-22.99c11.81,0.71,17.2,10.38,17.2,10.38s6.83-8.94,18.64-8.23
				c11.81,0.71,21.61,12.27,19.22,25.53c-0.16,0.89,0.42,9.17-20.52,27.08C70.4,112.72,65.07,117.01,61.88,119.42z"/>
		</g>
		<path class="st0" d="M99.75,42.3c-4.51,7.25-3.67,15.92,1.86,19.37c5.53,3.45,13.67,0.37,18.18-6.88
			c4.51-7.25,3.67-15.92-1.86-19.37C112.4,31.97,104.26,35.05,99.75,42.3z"/>
		<path class="st0" d="M70.2,24.68c-2.44,10.46,2.11,20.37,10.15,22.13c8.04,1.77,16.54-5.27,18.97-15.73
			c2.44-10.46-2.11-20.36-10.15-22.13C81.13,7.19,72.63,14.23,70.2,24.68z"/>
		<path class="st0" d="M59.36,24.03C58.55,13.38,51.22,5.39,42.98,6.18c-8.24,0.8-14.26,10.07-13.46,20.72
			c0.81,10.65,8.14,18.64,16.38,17.85C54.14,43.95,60.16,34.68,59.36,24.03z"/>
		<path class="st0" d="M5.6,47.94c3.35,7.72,10.94,11.75,16.96,8.99c6.02-2.76,8.17-11.25,4.82-18.96
			c-3.35-7.73-10.94-11.75-16.96-8.99C4.4,31.72,2.25,40.22,5.6,47.94z"/>
	</g>
</g>
</svg>
